<svg width="24" height="24" viewBox="0 0 24 24" fill="none" xmlns="http://www.w3.org/2000/svg">
<path fill-rule="evenodd" clip-rule="evenodd" d="M9.35447 2.87793C10.7695 2.46765 12.2607 2.39209 13.7099 2.65722C15.1591 2.92239 16.5271 3.52063 17.7051 4.40527C18.8831 5.29 19.8394 6.43706 20.498 7.75488C21.1566 9.07283 21.4996 10.5266 21.5 12C21.5002 13.7006 21.0438 15.3699 20.1787 16.834C19.3135 18.2981 18.0709 19.5031 16.581 20.3232C15.0913 21.1433 13.4087 21.5492 11.709 21.4971C10.0891 21.4474 8.51041 20.9832 7.12205 20.1523L3.15818 21.4746C2.97859 21.5344 2.78034 21.4873 2.64646 21.3535C2.51267 21.2196 2.46556 21.0214 2.52537 20.8418L3.84666 16.8769C3.13281 15.683 2.68931 14.3459 2.5488 12.96C2.40024 11.4942 2.59419 10.0135 3.11619 8.63574C3.63821 7.25807 4.47408 6.02078 5.55662 5.02148C6.63919 4.0222 7.93949 3.28825 9.35447 2.87793ZM7.99998 14.2998C7.61345 14.2999 7.29978 14.6134 7.29978 15C7.29987 15.3865 7.6135 15.7001 7.99998 15.7002H12C12.3865 15.7002 12.7001 15.3865 12.7002 15C12.7002 14.6134 12.3866 14.2998 12 14.2998H7.99998ZM7.99998 11.2998C7.61345 11.2999 7.29978 11.6134 7.29978 12C7.29987 12.3865 7.6135 12.7001 7.99998 12.7002H16C16.3865 12.7002 16.7001 12.3865 16.7002 12C16.7002 11.6134 16.3866 11.2998 16 11.2998H7.99998ZM7.99998 8.2998C7.61345 8.29989 7.29978 8.61345 7.29978 9C7.29987 9.38647 7.6135 9.7001 7.99998 9.70019H16C16.3865 9.70019 16.7001 9.38652 16.7002 9C16.7002 8.6134 16.3866 8.2998 16 8.2998H7.99998Z" fill="white"/>
</svg>
