<svg viewBox="0 0 23 23" fill="none" xmlns="http://www.w3.org/2000/svg">
<path fill-rule="evenodd" clip-rule="evenodd" d="M22.54 11.7613C22.54 10.9459 22.4668 10.1618 22.3309 9.40906H11.5V13.8575H17.6891C17.4225 15.295 16.6123 16.5129 15.3943 17.3284V20.2138H19.1109C21.2855 18.2118 22.54 15.2636 22.54 11.7613Z" fill="#4285F4"/>
<path fill-rule="evenodd" clip-rule="evenodd" d="M11.4999 22.9998C14.6049 22.9998 17.2081 21.97 19.1108 20.2137L15.3942 17.3282C14.3645 18.0182 13.0472 18.4259 11.4999 18.4259C8.50469 18.4259 5.96946 16.403 5.06514 13.6848H1.2231V16.6644C3.11537 20.4228 7.00446 22.9998 11.4999 22.9998Z" fill="#34A853"/>
<path fill-rule="evenodd" clip-rule="evenodd" d="M5.06523 13.6851C4.83523 12.9951 4.70455 12.2581 4.70455 11.5001C4.70455 10.7422 4.83523 10.0051 5.06523 9.31512V6.33557H1.22318C0.444318 7.88807 0 9.64443 0 11.5001C0 13.3558 0.444318 15.1122 1.22318 16.6647L5.06523 13.6851Z" fill="#FBBC05"/>
<path fill-rule="evenodd" clip-rule="evenodd" d="M11.4999 4.57386C13.1883 4.57386 14.7042 5.15409 15.8961 6.29364L19.1945 2.99523C17.2029 1.13955 14.5997 0 11.4999 0C7.00446 0 3.11537 2.57705 1.2231 6.33545L5.06514 9.315C5.96946 6.59682 8.50469 4.57386 11.4999 4.57386Z" fill="#EA4335"/>
</svg>
