<svg viewBox="0 0 24 24" fill="none" xmlns="http://www.w3.org/2000/svg">
<path d="M11.3115 5.92201C10.3997 5.00592 9.16149 4.48941 7.869 4.48604C6.5765 4.48266 5.33557 4.9927 4.41902 5.90401C3.50771 6.82056 2.99768 8.06149 3.00105 9.35398C3.00443 10.6465 3.52094 11.8847 4.43702 12.7965L11.4975 19.8585C11.6382 19.9991 11.8289 20.0781 12.0278 20.0781C12.2266 20.0781 12.4174 19.9991 12.558 19.8585L19.5825 12.8385C20.4934 11.922 21.0031 10.6814 20.9997 9.38928C20.9964 8.09715 20.4801 6.85922 19.5645 5.94751C19.1129 5.49256 18.576 5.13115 17.9845 4.88397C17.393 4.6368 16.7586 4.50871 16.1175 4.50704C15.4765 4.50536 14.8414 4.63014 14.2486 4.87423C13.6558 5.11832 13.117 5.47692 12.663 5.92951L11.9925 6.60151L11.3115 5.92201Z" fill="currentColor"/>
</svg>
