<svg viewBox="0 0 24 24" fill="none" xmlns="http://www.w3.org/2000/svg">
<path d="M10.82 5.0304C9.89027 4.2953 8.72058 3.93184 7.53795 4.01056C6.35533 4.08928 5.24413 4.60456 4.42001 5.4564C2.52001 7.4044 2.52801 10.5724 4.43601 12.5284L11.5 19.7744C11.792 20.0744 12.268 20.0744 12.56 19.7744L19.586 12.5704C20.4969 11.6177 21.0036 10.3494 20.9999 9.03137C20.9962 7.71331 20.4823 6.44787 19.566 5.5004C19.1202 5.03552 18.5853 4.66529 17.9932 4.41182C17.4011 4.15835 16.7639 4.02684 16.1198 4.02516C15.4758 4.02348 14.8379 4.15166 14.2445 4.40204C13.6511 4.65242 13.1142 5.01985 12.666 5.4824L11.994 6.1724L11.314 5.4724C11.1582 5.31681 10.994 5.16992 10.822 5.0324M14.098 6.8804C14.3599 6.60893 14.6741 6.39335 15.0216 6.24665C15.3691 6.09996 15.7427 6.02519 16.1199 6.02688C16.497 6.02856 16.87 6.10665 17.2162 6.25644C17.5623 6.40623 17.8746 6.62461 18.134 6.8984C19.288 8.0824 19.288 10.0044 18.152 11.1784L18.15 11.1804L12.03 17.4564L5.87001 11.1364C5.31571 10.5624 5.00458 9.79653 5.0016 8.99861C4.99862 8.2007 5.30402 7.43248 5.85401 6.8544C6.11549 6.58367 6.42907 6.36869 6.77587 6.22241C7.12266 6.07613 7.49548 6.00159 7.87186 6.00327C8.24824 6.00495 8.62038 6.08283 8.96585 6.2322C9.31132 6.38157 9.62297 6.59934 9.88201 6.8724L10.562 7.5704C10.7484 7.76181 10.9712 7.91394 11.2173 8.01782C11.4634 8.1217 11.7279 8.17522 11.995 8.17522C12.2622 8.17522 12.5266 8.1217 12.7727 8.01782C13.0188 7.91394 13.2417 7.76181 13.428 7.5704L14.098 6.8804Z" fill="currentColor"/>
</svg>
