<svg width="24" height="24" viewBox="0 0 24 24" fill="none" xmlns="http://www.w3.org/2000/svg">
<path d="M18.934 14.98C18.6357 14.5033 18.4773 13.9524 18.477 13.39V9.22602C18.477 7.50822 17.7946 5.86077 16.5799 4.64609C15.3653 3.43142 13.7178 2.74902 12 2.74902C10.2822 2.74902 8.63474 3.43142 7.42007 4.64609C6.20539 5.86077 5.523 7.50822 5.523 9.22602V13.388C5.52308 13.9511 5.36471 14.5028 5.066 14.98L3.978 16.72C3.88339 16.8714 3.83103 17.0453 3.82634 17.2238C3.82166 17.4022 3.86482 17.5787 3.95135 17.7348C4.03789 17.8909 4.16464 18.021 4.31844 18.1116C4.47224 18.2022 4.64749 18.25 4.826 18.25H19.174C19.3525 18.25 19.5278 18.2022 19.6816 18.1116C19.8354 18.021 19.9621 17.8909 20.0486 17.7348C20.1352 17.5787 20.1783 17.4022 20.1737 17.2238C20.169 17.0453 20.1166 16.8714 20.022 16.72L18.934 14.98Z" stroke="black" stroke-width="1.1" stroke-linecap="round" stroke-linejoin="round"/>
<path d="M10 21.25H14" stroke="black" stroke-width="1.1" stroke-linecap="round"/>
</svg>
