<svg width="24" height="24" viewBox="0 0 24 24" fill="none" xmlns="http://www.w3.org/2000/svg">
<path d="M19.6636 15.1181C19.5945 15.0332 19.5267 14.9484 19.4601 14.8666C18.5442 13.738 17.9901 13.0569 17.9901 9.8621C17.9901 8.20808 17.6016 6.85094 16.836 5.83308C16.2715 5.08114 15.5084 4.51071 14.5026 4.08915C14.4896 4.08182 14.4781 4.0722 14.4684 4.06074C14.1067 2.82658 13.1167 2 12.0001 2C10.8835 2 9.89396 2.82658 9.53218 4.05946C9.52255 4.07052 9.51115 4.07984 9.49846 4.08703C7.15128 5.07138 6.01057 6.95993 6.01057 9.86083C6.01057 13.0569 5.45729 13.738 4.54056 14.8653C4.47395 14.9471 4.40609 15.0303 4.33698 15.1168C4.15847 15.3361 4.04536 15.6029 4.01106 15.8857C3.97675 16.1684 4.02267 16.4553 4.1434 16.7123C4.40026 17.2636 4.94772 17.6059 5.57261 17.6059H18.4322C19.0542 17.6059 19.5979 17.264 19.8556 16.7152C19.9768 16.4582 20.0232 16.1711 19.9892 15.888C19.9551 15.6049 19.8422 15.3377 19.6636 15.1181ZM12.0001 21C12.6017 20.9995 13.1919 20.8331 13.7082 20.5186C14.2245 20.204 14.6476 19.7529 14.9326 19.2132C14.9461 19.1874 14.9527 19.1584 14.9519 19.1292C14.9511 19.0999 14.9429 19.0714 14.928 19.0463C14.9132 19.0213 14.8922 19.0005 14.8672 18.9862C14.8422 18.9718 14.814 18.9643 14.7853 18.9643H9.21579C9.18703 18.9642 9.15874 18.9717 9.13366 18.986C9.10859 19.0004 9.08759 19.0211 9.07271 19.0461C9.05783 19.0712 9.04957 19.0998 9.04874 19.1291C9.04792 19.1583 9.05455 19.1873 9.06799 19.2132C9.35298 19.7529 9.776 20.2039 10.2922 20.5185C10.8084 20.833 11.3986 20.9994 12.0001 21Z" fill="white"/>
</svg>
