<svg width="24" height="24" viewBox="0 0 24 24" fill="none" xmlns="http://www.w3.org/2000/svg">
<path fill-rule="evenodd" clip-rule="evenodd" d="M20.131 3.16001C19.5684 2.59759 18.8055 2.28165 18.01 2.28165C17.2145 2.28165 16.4516 2.59759 15.889 3.16001L15.182 3.86801L20.132 8.81801L20.838 8.11101C21.1167 7.83242 21.3377 7.50168 21.4885 7.13767C21.6393 6.77366 21.7169 6.38351 21.7169 5.98951C21.7169 5.5955 21.6393 5.20535 21.4885 4.84134C21.3377 4.47733 21.1167 4.14659 20.838 3.86801L20.131 3.16001ZM18.717 10.232L13.767 5.28201L4.67703 14.373C4.47811 14.572 4.33915 14.8228 4.27603 15.097L3.24703 19.552C3.20868 19.7174 3.21308 19.8898 3.2598 20.053C3.30653 20.2163 3.39404 20.3649 3.51408 20.4849C3.63413 20.605 3.78277 20.6925 3.94599 20.7392C4.10921 20.7859 4.28164 20.7903 4.44703 20.752L8.90303 19.724C9.17683 19.6607 9.42735 19.5218 9.62603 19.323L18.717 10.232Z" fill="white"/>
</svg>
