<svg width="24" height="24" viewBox="0 0 24 24" fill="none" xmlns="http://www.w3.org/2000/svg">
<path d="M12 3.5C14.189 3.50024 15.7922 5.21736 15.626 7.46289C15.4561 9.75388 13.7324 11.4997 12 11.5C10.267 11.5 8.53988 9.75426 8.37305 7.46387C8.2065 5.17388 9.80758 3.5 12 3.5Z" stroke="white" stroke-linecap="round" stroke-linejoin="round"/>
<path d="M12 14.5C15.9361 14.5 19.7833 16.6635 20.4912 20.5859C20.5169 20.7285 20.4852 20.8428 20.4404 20.9082C20.4033 20.9624 20.3489 21 20.25 21H3.75C3.65165 21 3.59768 20.9624 3.56055 20.9082C3.51574 20.8427 3.48315 20.7285 3.50879 20.5859C4.2162 16.6636 8.06388 14.5 12 14.5Z" stroke="white" stroke-miterlimit="10"/>
</svg>
