<svg width="32" height="32" viewBox="0 0 24 24" fill="none" xmlns="http://www.w3.org/2000/svg">
<path d="M12 4.575C12.9846 3.59038 14.32 3.03723 15.7125 3.03723C17.105 3.03723 18.4404 3.59038 19.425 4.575C20.4096 5.55962 20.9628 6.89504 20.9628 8.2875C20.9628 9.67996 20.4096 11.0154 19.425 12L12 19.425C11.5125 19.9125 10.9337 20.2993 10.2967 20.5631C9.6597 20.827 8.97697 20.9628 8.2875 20.9628C6.89504 20.9628 5.55962 20.4096 4.575 19.425C3.59038 18.4404 3.03723 17.105 3.03723 15.7125C3.03723 14.32 3.59038 12.9846 4.575 12L12 4.575ZM15.183 14.121L18.363 10.941C19.0613 10.2368 19.4522 9.28464 19.4501 8.29293C19.4481 7.30121 19.0533 6.35068 18.3522 5.64933C17.651 4.94798 16.7006 4.55293 15.7089 4.55061C14.7172 4.5483 13.7649 4.93892 13.0605 5.637L9.879 8.817L15.183 14.121ZM11.781 16.281C11.8506 16.2113 11.9059 16.1285 11.9435 16.0374C11.9811 15.9464 12.0005 15.8488 12.0004 15.7502C12.0003 15.6517 11.9809 15.5541 11.9431 15.4631C11.9053 15.3721 11.85 15.2894 11.7802 15.2198C11.7105 15.1501 11.6278 15.0949 11.5367 15.0573C11.4456 15.0196 11.348 15.0003 11.2495 15.0003C11.1509 15.0004 11.0534 15.0199 10.9623 15.0577C10.8713 15.0954 10.7886 15.1508 10.719 15.2205L8.469 17.4705C8.39937 17.5402 8.34415 17.623 8.3065 17.7141C8.26885 17.8051 8.24951 17.9027 8.24958 18.0013C8.24972 18.2003 8.32892 18.3911 8.46975 18.5318C8.61058 18.6724 8.80151 18.7513 9.00053 18.7512C9.19955 18.751 9.39037 18.6718 9.531 18.531L11.781 16.281Z" fill="white"/>
</svg>
