<svg width="24" height="24" viewBox="0 0 24 24" fill="none" xmlns="http://www.w3.org/2000/svg">
<path d="M19.8767 3C20.4439 3 20.988 3.22536 21.3891 3.62649C21.7902 4.02762 22.0156 4.57168 22.0156 5.13897V7.12678C22.0158 7.78367 21.8346 8.42785 21.4919 8.98824C21.1492 9.54863 20.6583 10.0034 20.0735 10.3024L14.0988 13.354C15.1497 13.8302 16.0057 14.6519 16.5244 15.6824C17.0431 16.7129 17.1931 17.89 16.9496 19.0177C16.706 20.1454 16.0835 21.1557 15.1858 21.8802C14.2881 22.6048 13.1692 23 12.0156 23C10.8619 23 9.74307 22.6048 8.84533 21.8802C7.94759 21.1557 7.32512 20.1454 7.08157 19.0177C6.83801 17.89 6.98808 16.7129 7.50677 15.6824C8.02546 14.6519 8.88147 13.8302 9.93229 13.354L3.9591 10.301C3.4143 10.0228 2.95027 9.60903 2.61164 9.09957C2.27301 8.5901 2.07117 8.00206 2.02555 7.39202L2.01556 7.12678V5.13897C2.01556 4.57168 2.24091 4.02762 2.64203 3.62649C3.04315 3.22536 3.58718 3 4.15445 3H19.8767ZM12.0156 14.3294C11.5401 14.3294 11.0693 14.4231 10.6301 14.605C10.1908 14.787 9.79173 15.0536 9.45554 15.3898C9.11935 15.726 8.85268 16.1252 8.67073 16.5644C8.48879 17.0037 8.39514 17.4745 8.39514 17.95C8.39514 18.4254 8.48879 18.8962 8.67073 19.3355C8.85268 19.7748 9.11935 20.1739 9.45554 20.5101C9.79173 20.8463 10.1908 21.113 10.6301 21.2949C11.0693 21.4769 11.5401 21.5705 12.0156 21.5705C12.9758 21.5705 13.8966 21.1891 14.5756 20.5101C15.2545 19.8311 15.636 18.9102 15.636 17.95C15.636 16.9897 15.2545 16.0688 14.5756 15.3898C13.8966 14.7109 12.9758 14.3294 12.0156 14.3294ZM15.7272 4.42598H8.29818V10.9185L11.6919 12.6525C11.7923 12.7038 11.9035 12.7305 12.0163 12.7305C12.1291 12.7305 12.2402 12.7038 12.3407 12.6525L15.7272 10.9213V4.42598Z" fill="white"/>
</svg>
