<svg width="24" height="24" viewBox="0 0 24 24" fill="none" xmlns="http://www.w3.org/2000/svg">
<path d="M20 20L15.95 15.95M15.95 15.95C16.6 15.2999 17.1157 14.5282 17.4675 13.6789C17.8193 12.8296 18.0003 11.9193 18.0003 11C18.0003 10.0807 17.8193 9.17039 17.4675 8.32107C17.1157 7.47175 16.6 6.70003 15.95 6.04999C15.2999 5.39995 14.5282 4.8843 13.6789 4.5325C12.8296 4.1807 11.9193 3.99963 11 3.99963C10.0807 3.99963 9.17039 4.1807 8.32107 4.5325C7.47175 4.8843 6.70003 5.39995 6.04999 6.04999C4.73717 7.36281 3.99963 9.14338 3.99963 11C3.99963 12.8566 4.73717 14.6372 6.04999 15.95C7.36281 17.2628 9.14338 18.0003 11 18.0003C12.8566 18.0003 14.6372 17.2628 15.95 15.95Z" stroke="white" stroke-width="1.4" stroke-linecap="round" stroke-linejoin="round"/>
</svg>
