<svg width="24" height="24" viewBox="0 0 24 24" fill="none" xmlns="http://www.w3.org/2000/svg">
<path d="M14.7402 2.80261C14.6462 2.33579 14.236 2 13.7598 2H10.2405C9.76417 2 9.35397 2.33594 9.2601 2.80291L8.93168 4.43652C8.86784 4.75407 8.65207 5.0172 8.36557 5.16833C8.19574 5.25792 8.02932 5.35374 7.86664 5.45559C7.59306 5.62688 7.25854 5.68166 6.95261 5.57875L5.35187 5.04029C4.90153 4.8888 4.40677 5.07512 4.16821 5.48603L2.41433 8.50714C2.174 8.92112 2.26075 9.44737 2.62125 9.7623L3.87906 10.8611C4.12363 11.0748 4.24482 11.3938 4.23306 11.7183C4.22625 11.906 4.22625 12.094 4.23306 12.2817C4.24482 12.6062 4.12362 12.9252 3.87906 13.1389L2.62135 14.2376C2.2608 14.5526 2.17408 15.0789 2.41451 15.4929L4.16916 18.5143C4.40772 18.925 4.90231 19.1113 5.35257 18.9599L6.95345 18.4218C7.25891 18.3191 7.59289 18.3736 7.86603 18.5446C8.02818 18.6461 8.1944 18.7419 8.36454 18.8316C8.65153 18.9829 8.86792 19.2463 8.93187 19.5644L9.2601 21.1971C9.35397 21.6641 9.76417 22 10.2405 22H13.7596C14.2359 22 14.6461 21.6641 14.74 21.1971L15.0684 19.5635C15.1322 19.2459 15.348 18.9828 15.6345 18.8317C15.8043 18.7421 15.9707 18.6463 16.1334 18.5444C16.407 18.3731 16.7415 18.3183 17.0474 18.4212L18.6483 18.9598C19.0986 19.1112 19.5933 18.925 19.8319 18.5141L21.5864 15.4931C21.8268 15.079 21.7401 14.5526 21.3794 14.2376L20.1212 13.1389C19.8765 12.9252 19.7552 12.6062 19.767 12.2816C19.7738 12.0939 19.7738 11.906 19.767 11.7183C19.7552 11.3938 19.8764 11.0748 20.121 10.8611L21.3787 9.76239C21.7393 9.44741 21.826 8.92109 21.5856 8.50709L19.8309 5.48579C19.5924 5.07499 19.0977 4.88873 18.6474 5.04015L17.048 5.57801C16.7423 5.68083 16.408 5.62615 16.1345 5.45511C15.9718 5.35336 15.8054 5.25765 15.6356 5.16816C15.349 5.01714 15.1331 4.75404 15.0691 4.43645L14.7402 2.80261ZM12 15.6364C11.03 15.6364 10.0997 15.2532 9.4138 14.5713C8.72789 13.8893 8.34255 12.9644 8.34255 12C8.34255 11.0356 8.72789 10.1107 9.4138 9.4287C10.0997 8.74675 11.03 8.36364 12 8.36364C12.9701 8.36364 13.9003 8.74675 14.5863 9.4287C15.2722 10.1107 15.6575 11.0356 15.6575 12C15.6575 12.9644 15.2722 13.8893 14.5863 14.5713C13.9003 15.2532 12.9701 15.6364 12 15.6364Z" fill="white"/>
</svg>
