<svg width="24" height="24" viewBox="0 0 24 24" fill="none" xmlns="http://www.w3.org/2000/svg">
<path fill-rule="evenodd" clip-rule="evenodd" d="M11.2862 2.28209C11.6662 1.90252 12.3281 1.90242 12.7081 2.28209C15.3691 4.93625 19.925 4.98115 19.9825 4.98131C20.5425 4.98131 20.9824 5.42152 20.9825 5.98131V7.34069C21.0645 12.2395 21.1845 18.9581 12.3077 21.9374C12.2079 21.9772 12.1081 21.9979 11.9883 21.9979L12.0284 21.9774C11.9285 21.9774 11.808 21.9777 11.7081 21.9178C2.82921 18.9786 2.9488 12.2395 3.01081 7.34069V5.98131C3.01089 5.42166 3.451 4.98153 4.01081 4.98131C4.05081 4.98131 8.64194 4.94143 11.2862 2.28209Z" fill="white"/>
</svg>
