<svg viewBox="0 0 24 24" fill="currentColor" xmlns="http://www.w3.org/2000/svg">
<path d="M8.60862 1.97375C8.57253 1.79889 8.46883 1.64503 8.31976 1.54521C8.1707 1.44538 7.98815 1.40754 7.8113 1.43979C7.63444 1.47204 7.47737 1.57183 7.37379 1.71773C7.27021 1.86364 7.22837 2.04403 7.25725 2.22021C7.27008 2.29054 7.28413 2.36026 7.2994 2.42938C5.06207 3.11783 3.79224 4.24008 3.10876 5.52239C2.47202 6.71558 2.38956 7.9688 2.3804 8.91462L1.43398 10.1151C1.25977 10.3361 1.13321 10.5903 1.06218 10.8619C0.991141 11.1335 0.977142 11.4167 1.02105 11.6939C1.06496 11.9711 1.16584 12.2364 1.31741 12.4733C1.46899 12.7101 1.66803 12.9135 1.90215 13.0708L12.551 20.219C13.7253 21.0073 15.1105 21.4285 16.5281 21.4286H19.612C20.0615 21.4286 20.5066 21.3398 20.9211 21.1672C21.3357 20.9946 21.7114 20.7418 22.0264 20.4234C22.3414 20.1051 22.5894 19.7276 22.7558 19.313C22.9221 18.8985 23.0036 18.4552 22.9955 18.0091C22.9607 16.1538 21.4105 14.8415 19.9336 14.2485C19.3454 14.012 18.8424 13.6783 18.5291 13.219L15.0522 7.32946L15.0915 7.32218C15.2657 7.28638 15.4192 7.18492 15.5195 7.03913C15.6199 6.89335 15.6594 6.71461 15.6297 6.54051C15.6001 6.36641 15.5035 6.21051 15.3604 6.10561C15.2174 6.0007 15.0389 5.95497 14.8625 5.97802C14.5394 6.03198 14.2203 6.05987 13.9051 6.06169C11.5972 6.07988 9.57153 4.76937 8.82942 2.77587C8.73299 2.51528 8.65851 2.24691 8.60862 1.97375ZM6.09186 4.41378L8.15328 7.95697C8.24347 8.11217 8.30199 8.28348 8.32548 8.46112C8.34896 8.63877 8.33697 8.81927 8.29018 8.99231C8.24338 9.16535 8.16271 9.32755 8.05276 9.46964C7.94281 9.61173 7.80574 9.73092 7.64938 9.82042L5.9013 10.8226L3.75376 9.38571V9.15107C3.75376 8.1998 3.80323 7.13575 4.32271 6.16082C4.64887 5.54968 5.18301 4.93398 6.09186 4.41378ZM7.43865 11.853L11.0411 9.78859C11.1974 9.69906 11.37 9.64098 11.549 9.61766C11.7279 9.59435 11.9098 9.60625 12.0841 9.6527C12.2584 9.69915 12.4218 9.77923 12.565 9.88837C12.7081 9.99751 12.8282 10.1336 12.9184 10.2888L13.6513 11.5502C13.8336 11.8634 13.8831 12.2357 13.789 12.5851C13.6948 12.9346 13.4647 13.2326 13.1492 13.4136L11.3288 14.4568L7.43865 11.853ZM16.5428 18.703H21.5177C21.3843 19.0998 21.1285 19.4449 20.7864 19.6893C20.4443 19.9336 20.0334 20.0649 19.612 20.0644H16.5281C15.3852 20.0644 14.2684 19.7248 13.3215 19.0895L2.67174 11.9412C2.59364 11.8888 2.52724 11.821 2.47668 11.7419C2.42613 11.6629 2.3925 11.5744 2.37789 11.4819C2.36328 11.3895 2.368 11.295 2.39176 11.2044C2.41552 11.1138 2.45781 11.0291 2.51599 10.9554L2.90537 10.4625L14.1094 17.9654C14.8284 18.4464 15.6758 18.7032 16.5428 18.703Z" fill="currentColor"/>
</svg>
