<svg viewBox="0 0 24 24" fill="none" xmlns="http://www.w3.org/2000/svg">
<path d="M5 10.1786C5 10.1351 5.03785 10.0997 5.08428 10.0997H17.0275C17.074 10.0997 17.1118 10.1351 17.1118 10.1786V15.7719C17.1118 18.9044 14.4003 21.4441 11.0559 21.4441C7.71154 21.4441 5 18.9044 5 15.7719V10.1786Z" fill="currentColor" stroke="currentColor" stroke-width="2" stroke-linecap="round" stroke-linejoin="round"/>
<path d="M17.8 16.885C18.6487 16.885 19.4627 16.5478 20.0628 15.9477C20.6629 15.3476 21 14.5336 21 13.685C21 12.8363 20.6629 12.0223 20.0628 11.4222C19.4627 10.8221 18.6487 10.485 17.8 10.485" stroke="currentColor" stroke-width="2" stroke-linecap="round"/>
<path d="M5.55054 4.42746V6.12912M16.5613 4.42746V6.12912M11.0559 2.7258V6.12912" stroke="currentColor" stroke-width="2" stroke-linecap="round" stroke-linejoin="round"/>
</svg>
